<svg xmlns="http://www.w3.org/2000/svg" width="31.013" height="21.175" viewBox="0 0 31.013 21.175"><defs><style>.a{fill:#d3a200;}</style></defs><g transform="translate(-2.5 -17.6)"><path class="a" d="M32.661,37.01h-2.32V32.893C31.55,32.566,32.5,31,32.5,29.1c0-2.124-1.176-3.856-2.614-3.856S27.27,26.978,27.27,29.1c0,1.9.915,3.464,2.157,3.791V37.01H25.342V18.548a.948.948,0,0,0-.948-.948H11.65a.948.948,0,0,0-.948.948V37.01H6.65V32.893C7.859,32.566,8.807,31,8.807,29.1c0-2.124-1.176-3.856-2.614-3.856S3.578,26.978,3.578,29.1c0,1.9.915,3.464,2.157,3.791V37.01H3.382a.882.882,0,0,0,0,1.765H32.629a.879.879,0,0,0,.882-.882A.832.832,0,0,0,32.661,37.01ZM21.028,20.018a.223.223,0,0,1,.229-.229h1.667a.223.223,0,0,1,.229.229v1.6a.223.223,0,0,1-.229.229H21.257a.223.223,0,0,1-.229-.229Zm0,4.215A.223.223,0,0,1,21.257,24h1.667a.223.223,0,0,1,.229.229v1.6a.223.223,0,0,1-.229.229H21.257a.223.223,0,0,1-.229-.229Zm-4.085-4.215a.223.223,0,0,1,.229-.229h1.667a.223.223,0,0,1,.229.229v1.6a.223.223,0,0,1-.229.229H17.172a.223.223,0,0,1-.229-.229Zm0,4.215A.223.223,0,0,1,17.172,24h1.667a.223.223,0,0,1,.229.229v1.6a.223.223,0,0,1-.229.229H17.172a.223.223,0,0,1-.229-.229Zm0,4.248a.223.223,0,0,1,.229-.229h1.667a.223.223,0,0,1,.229.229v1.6a.223.223,0,0,1-.229.229H17.172a.223.223,0,0,1-.229-.229Zm-4.085-8.463a.223.223,0,0,1,.229-.229h1.667a.223.223,0,0,1,.229.229v1.6a.223.223,0,0,1-.229.229H13.12a.223.223,0,0,1-.229-.229v-1.6Zm0,4.215A.223.223,0,0,1,13.088,24h1.667a.223.223,0,0,1,.229.229v1.6a.223.223,0,0,1-.229.229H13.12a.223.223,0,0,1-.229-.229v-1.6Zm1.928,6.078H13.12a.223.223,0,0,1-.229-.229v-1.6a.223.223,0,0,1,.229-.229h1.667a.223.223,0,0,1,.229.229v1.6A.223.223,0,0,1,14.787,30.312Zm2.941,6.078a.223.223,0,0,1-.229.229H15.277a.223.223,0,0,1-.229-.229V32.7a.223.223,0,0,1,.229-.229H17.5a.223.223,0,0,1,.229.229Zm3.3,0a.223.223,0,0,1-.229.229H18.577a.223.223,0,0,1-.229-.229V32.7a.223.223,0,0,1,.229-.229H20.8a.223.223,0,0,1,.229.229Zm.229-6.078a.223.223,0,0,1-.229-.229v-1.6a.223.223,0,0,1,.229-.229h1.667a.223.223,0,0,1,.229.229v1.6a.223.223,0,0,1-.229.229Z" transform="translate(0 0)"/></g></svg>