<svg xmlns="http://www.w3.org/2000/svg" width="22" height="22" viewBox="0 0 22 22"><defs><style>.a,.b{fill:#707585;}.a{opacity:0;}</style></defs><g transform="translate(-0.027)"><rect class="a" width="22" height="22" transform="translate(0.027)"/><g transform="translate(2.427 3)"><path class="b" d="M16.412,22.569h-1.9V21.7a.53.53,0,0,0-1.059,0v.872H9.547V21.7a.53.53,0,0,0-1.059,0v.872H4.58V21.7a.53.53,0,0,0-1.059,0v.872H1.588A1.574,1.574,0,0,0,0,24.125v11.67a1.574,1.574,0,0,0,1.588,1.556H16.412A1.574,1.574,0,0,0,18,35.795V24.125A1.574,1.574,0,0,0,16.412,22.569ZM1.059,24.125a.525.525,0,0,1,.529-.519H3.521v.641a.53.53,0,0,0,1.059,0v-.641H8.488v.641a.53.53,0,0,0,1.059,0v-.641h3.908v.641a.53.53,0,0,0,1.059,0v-.641h1.9a.525.525,0,0,1,.529.519v1.629H1.059ZM16.412,36.313H1.588a.525.525,0,0,1-.529-.519v-9H16.941v9A.525.525,0,0,1,16.412,36.313Z" transform="translate(0 -21.178)"/><path class="b" d="M352.168,324.482a1.634,1.634,0,1,0,1.668,1.634A1.653,1.653,0,0,0,352.168,324.482Zm0,2.231a.6.6,0,1,1,.609-.6A.6.6,0,0,1,352.168,326.713Z" transform="translate(-338.129 -313.993)"/><path class="b" d="M209.418,324.482a1.634,1.634,0,1,0,1.668,1.634A1.653,1.653,0,0,0,209.418,324.482Zm0,2.231a.6.6,0,1,1,.609-.6A.6.6,0,0,1,209.418,326.713Z" transform="translate(-200.418 -313.993)"/><path class="b" d="M66.668,324.482a1.634,1.634,0,1,0,1.668,1.634A1.653,1.653,0,0,0,66.668,324.482Zm0,2.231a.6.6,0,1,1,.609-.6A.6.6,0,0,1,66.668,326.713Z" transform="translate(-62.706 -313.993)"/><path class="b" d="M352.168,209.149a1.634,1.634,0,1,0,1.668,1.634A1.653,1.653,0,0,0,352.168,209.149Zm0,2.231a.6.6,0,1,1,.609-.6A.6.6,0,0,1,352.168,211.38Z" transform="translate(-338.129 -202.648)"/><path class="b" d="M209.418,209.149a1.634,1.634,0,1,0,1.668,1.634A1.653,1.653,0,0,0,209.418,209.149Zm0,2.231a.6.6,0,1,1,.609-.6A.6.6,0,0,1,209.418,211.38Z" transform="translate(-200.418 -202.648)"/><path class="b" d="M66.668,209.149a1.634,1.634,0,1,0,1.668,1.634A1.653,1.653,0,0,0,66.668,209.149Zm0,2.231a.6.6,0,1,1,.609-.6A.6.6,0,0,1,66.668,211.38Z" transform="translate(-62.706 -202.648)"/></g></g></svg>