<svg xmlns="http://www.w3.org/2000/svg" width="28.516" height="26.43" viewBox="0 0 28.516 26.43"><defs><style>.a,.b{fill:#fd4189;}.a{stroke:#fd4189;stroke-width:0.3px;}</style></defs><g transform="translate(-659 -287)"><g transform="translate(226 -148)"><path class="a" d="M319.222,2H313.3V12.822h8.66V4.738Zm.211,1.233,1.294,1.294h-1.294Zm1.805,8.867h-7.216V2.722h4.689V5.249h2.527Z" transform="translate(139.406 434)"/><path class="a" d="M346.1,152.388h2.888V149.5H346.1Zm.722-2.166h1.444v1.444h-1.444Z" transform="translate(108.05 292.994)"/><rect class="a" width="1.805" height="0.722" transform="translate(457.755 442.855)"/><rect class="a" width="1.805" height="0.722" transform="translate(457.755 444.299)"/><path class="a" d="M349.477,46.945l-.467-.462-.511.506.977.977,2.056-2.056-.506-.511Z" transform="translate(105.755 392.511)"/></g><g transform="translate(381.272 278.273)"><path class="b" d="M55.667,22.9l4.527-.925c.223-.542.446-1.339.7-1.849.064-.159.1-.223.191-.223h0c-.287-.51-.542-1.084-.893-1.626-.606.446-.861-.51-1.977-1.371-.925-.733.064-2.359,1.052-1.817a5.255,5.255,0,0,1-.383-1.212c.191-3.826,4.3-5.579,7.237-4.559,1.53.542,1.371,1.594,1.4,1.626.638.8,1.371.829,1.275,2.933a7.464,7.464,0,0,1-.383,1.212c.988-.542,1.977,1.084,1.02,1.817-1.084.861-1.339,1.817-1.977,1.371-.319.542-.606,1.116-.861,1.626h0c.064,0,.128.064.191.223.223.51.446,1.307.67,1.849l4.527.925a1.828,1.828,0,0,1,1.5,1.562l2.2,11-4.113-.032-.765-4.4v4.4H56.878v-4.4l-.765,4.4L52,35.46l2.168-11A1.9,1.9,0,0,1,55.667,22.9Zm7.461-1.339a.921.921,0,0,0,.319,1.18l-.765,7.684,1.148,1.626,1.148-1.626-.733-7.684a.957.957,0,0,0,.319-1.18A3.623,3.623,0,0,1,63.127,21.56Zm.7,11.892a.566.566,0,0,1,.383.988.582.582,0,0,1-.765,0A.57.57,0,0,1,63.829,33.452Zm-8.863-9.278c.032-.638,1.084,2.1,1.4,3.826l.446,2.264c.032.542-1.148-1.116-1.307-1.467-.064-.159.988.988.861.542-.159-.446-.414-1.084-.542-1.594Zm8.863,8.481-3-4.209-.956-6.09-4.049.829L57.2,30.965V35.11H70.46V30.965l1.4-7.779-4.081-.829-.925,6.09Z" transform="translate(225.728 -0.303)"/></g></g></svg>