<svg xmlns="http://www.w3.org/2000/svg" width="19.056" height="19.056" viewBox="0 0 19.056 19.056"><defs><style>.a{fill:#1e71c4;}</style></defs><path class="a" d="M19.056,2.493A2.493,2.493,0,0,0,16.563,0H2.493A2.493,2.493,0,0,0,0,2.493v14.07a2.493,2.493,0,0,0,2.493,2.493h14.07a2.493,2.493,0,0,0,2.493-2.493ZM14.582,13.729H4.542a.768.768,0,0,1,0-1.537h10.04a.768.768,0,0,1,0,1.537Zm0-3.586H4.542a.768.768,0,1,1,0-1.537h10.04a.768.768,0,0,1,0,1.537Zm0-3.278H6.9a.768.768,0,0,1,0-1.537h7.684a.768.768,0,0,1,0,1.537Z"/></svg>