<svg xmlns="http://www.w3.org/2000/svg" width="13.966" height="17.174" viewBox="0 0 13.966 17.174"><defs><style>.a{fill:#a0a5b9;opacity:0.404;}</style></defs><path class="a" d="M28.1,10.167h-.2V7.536A4.661,4.661,0,0,0,23,3.167a4.661,4.661,0,0,0-4.9,4.369v2.63h-.2a1.8,1.8,0,0,0-1.888,1.685v6.8a1.8,1.8,0,0,0,1.888,1.685H28.1a1.8,1.8,0,0,0,1.888-1.685v-6.8A1.8,1.8,0,0,0,28.1,10.167Zm-8.143-2.63A2.9,2.9,0,0,1,23,4.817a2.9,2.9,0,0,1,3.048,2.719v2.63h-6.1Zm3.836,8.483v1.769a.793.793,0,0,1-1.576,0V16.02a1.649,1.649,0,0,1-1.064-1.493,1.863,1.863,0,0,1,3.7,0A1.65,1.65,0,0,1,23.788,16.02Z" transform="translate(-16.017 -3.167)"/></svg>