<svg xmlns="http://www.w3.org/2000/svg" width="18.529" height="18.526" viewBox="0 0 18.529 18.526"><defs><style>.a{fill:#365fac;stroke:#365fac;}</style></defs><g transform="translate(-0.5 -0.5)"><g transform="translate(1 1)"><path class="a" d="M8.595,16.189a7.595,7.595,0,1,1,7.595-7.595A7.594,7.594,0,0,1,8.595,16.189Zm0-14.021a6.426,6.426,0,1,0,6.426,6.426A6.426,6.426,0,0,0,8.595,2.168Z" transform="translate(-1 -1)"/></g><g transform="translate(13.266 13.266)"><path class="a" d="M26.672,27.256a.584.584,0,0,1-.415-.169L22.168,23a.587.587,0,0,1,.83-.83l4.089,4.089a.584.584,0,0,1,0,.826l0,0A.584.584,0,0,1,26.672,27.256Z" transform="translate(-21.996 -21.996)"/></g></g></svg>