<svg xmlns="http://www.w3.org/2000/svg" width="20" height="20.008" viewBox="0 0 20 20.008"><defs><style>.a{fill:#9fa5b9;}</style></defs><g transform="translate(-0.031 -0.001)"><path class="a" d="M19.969,8.9a.651.651,0,0,0-.644-.492,2.2,2.2,0,0,1-1.513-3.844.556.556,0,0,0,.062-.758,10.081,10.081,0,0,0-1.587-1.6.558.558,0,0,0-.762.062,2.3,2.3,0,0,1-2.493.562A2.229,2.229,0,0,1,11.682.653.56.56,0,0,0,11.19.066,10.087,10.087,0,0,0,8.941.06a.558.558,0,0,0-.5.57A2.223,2.223,0,0,1,7.074,2.764,2.321,2.321,0,0,1,4.6,2.2a.556.556,0,0,0-.754-.062,9.931,9.931,0,0,0-1.617,1.6.562.562,0,0,0,.058.762A2.215,2.215,0,0,1,2.85,7,2.313,2.313,0,0,1,.673,8.349.544.544,0,0,0,.1,8.841a9.837,9.837,0,0,0,0,2.273.644.644,0,0,0,.652.492,2.2,2.2,0,0,1,2.057,1.373,2.227,2.227,0,0,1-.558,2.473.556.556,0,0,0-.062.756,9.9,9.9,0,0,0,1.583,1.6.558.558,0,0,0,.762-.058,2.307,2.307,0,0,1,2.5-.566,2.215,2.215,0,0,1,1.351,2.171.56.56,0,0,0,.492.586,10.317,10.317,0,0,0,1.153.066,9.417,9.417,0,0,0,1.1-.062.558.558,0,0,0,.5-.574,2.219,2.219,0,0,1,1.367-2.133,2.309,2.309,0,0,1,2.471.57.556.556,0,0,0,.754.062,10.094,10.094,0,0,0,1.617-1.6.558.558,0,0,0-.058-.762,2.2,2.2,0,0,1,1.489-3.852h.124a.56.56,0,0,0,.586-.492A10.359,10.359,0,0,0,19.969,8.9Zm-9.923,4.464a3.336,3.336,0,1,1,3.336-3.336h0A3.34,3.34,0,0,1,10.046,13.361Z" transform="translate(0 0)"/></g></svg>