<svg xmlns="http://www.w3.org/2000/svg" width="19.323" height="19.323" viewBox="0 0 19.323 19.323"><defs><style>.a{fill:#365fac;}</style></defs><g transform="translate(-0.512 -0.512)"><path class="a" d="M5.513,10.228a4.741,4.741,0,1,0,4.741-4.741A4.746,4.746,0,0,0,5.513,10.228Z" transform="translate(-0.069 -0.065)"/><path class="a" d="M19.195,12.487a6.276,6.276,0,0,1-1.545,3.727l2.378,2.378a9.621,9.621,0,0,0,2.531-6.1Z" transform="translate(-2.724 -1.904)"/><path class="a" d="M14.331,14.9A6.3,6.3,0,1,1,9.763,3.876V.512a9.665,9.665,0,1,0,6.945,16.77Z"/><path class="a" d="M12.513,3.877a6.307,6.307,0,0,1,5.866,5.866h3.364a9.669,9.669,0,0,0-9.23-9.23Z" transform="translate(-1.908 0)"/></g></svg>