<svg xmlns="http://www.w3.org/2000/svg" width="14.01" height="14.647" viewBox="0 0 14.01 14.647"><defs><style>.a{opacity:0.404;}.b{fill:#a0a5b9;}</style></defs><g class="a" transform="translate(-5 -4)"><path class="b" d="M13.821,4a3.821,3.821,0,1,0,3.821,3.821A3.832,3.832,0,0,0,13.821,4Z" transform="translate(-1.816 0)"/><path class="b" d="M15.38,15a5.109,5.109,0,0,1-6.75,0A3.885,3.885,0,0,0,5,18.821v2.547a1.277,1.277,0,0,0,1.274,1.274H17.736a1.277,1.277,0,0,0,1.274-1.274V18.821A3.885,3.885,0,0,0,15.38,15Z" transform="translate(0 -3.995)"/></g></svg>