<svg xmlns="http://www.w3.org/2000/svg" xmlns:xlink="http://www.w3.org/1999/xlink" width="514.037" height="237.448" viewBox="0 0 514.037 237.448"><defs><style>.a,.b,.g,.m{opacity:0.5;}.a{fill:url(#a);}.b{fill:url(#b);}.c{fill:#5bb59b;}.d{fill:#fff;}.ah,.e{fill:#524f63;}.f{fill:#63a590;}.g{fill:url(#c);}.h{fill:#e0e4ed;}.i{fill:#424051;}.j{fill:#eebcc5;}.k{fill:#9092ec;}.l{fill:#ead18c;}.m{fill:url(#h);}.n{fill:#91616a;}.o{fill:#5b61d3;}.p{fill:#8385e6;}.q{fill:url(#i);}.r{fill:url(#j);}.s,.x{fill:#4a4549;}.t{fill:#eff2f7;}.u{fill:url(#k);}.v{fill:#d98e9d;}.w{fill:url(#l);}.x{opacity:0.7;}.ad,.y{fill:none;stroke-miterlimit:10;}.z{fill:#75454f;}.aa{fill:#8284e5;}.ab{fill:#37354c;}.ac{fill:url(#m);}.ad{stroke:#524f63;}.ae{fill:#bcbace;}.af{fill:url(#n);}.ag,.ah{stroke:none;}</style><linearGradient id="a" x1="1.059" y1="-2.168" x2="-0.576" y2="5.634" gradientUnits="objectBoundingBox"><stop offset="0" stop-color="#4a50c2" stop-opacity="0.02"/><stop offset="1" stop-color="#444bcc" stop-opacity="0.639"/></linearGradient><linearGradient id="b" x1="1.059" y1="-2.168" x2="-0.576" y2="5.634" gradientUnits="objectBoundingBox"><stop offset="0" stop-color="#4a50c2" stop-opacity="0.02"/><stop offset="1" stop-color="#8b8b8b" stop-opacity="0.639"/></linearGradient><linearGradient id="c" x1="1.059" y1="-2.394" x2="-0.575" y2="6.068" gradientUnits="objectBoundingBox"><stop offset="0" stop-color="#cecece" stop-opacity="0.02"/><stop offset="1" stop-color="#454545" stop-opacity="0.639"/></linearGradient><linearGradient id="h" y1="0.5" x2="1" y2="0.5" gradientUnits="objectBoundingBox"><stop offset="0" stop-color="#ead18c" stop-opacity="0"/><stop offset="1" stop-color="#524f63" stop-opacity="0.702"/></linearGradient><linearGradient id="i" y1="0.5" x2="1" y2="0.5" gradientUnits="objectBoundingBox"><stop offset="0" stop-color="#484ec2" stop-opacity="0"/><stop offset="1" stop-color="#444bcc" stop-opacity="0.502"/></linearGradient><linearGradient id="j" x1="-1.061" y1="0.879" x2="2.718" y2="0.177" xlink:href="#h"/><linearGradient id="k" x1="0.194" y1="1.477" x2="0.716" y2="-0.379" xlink:href="#i"/><linearGradient id="l" y1="0.5" x2="1" y2="0.5" gradientUnits="objectBoundingBox"><stop offset="0" stop-color="#b6567a" stop-opacity="0"/><stop offset="1" stop-color="#c45771"/></linearGradient><linearGradient id="m" x1="0.311" y1="1.144" x2="0.883" y2="-0.139" xlink:href="#i"/><linearGradient id="n" x1="0.495" y1="0.764" x2="0.565" y2="-2.765" gradientUnits="objectBoundingBox"><stop offset="0" stop-color="#676475" stop-opacity="0"/><stop offset="1" stop-color="#524f63" stop-opacity="0.702"/></linearGradient></defs><path class="a" d="M91.828,366.414c0,1.894-10.994,3.43-24.555,3.43s-24.555-1.536-24.555-3.43,10.995-3.43,24.555-3.43S91.828,364.52,91.828,366.414Z" transform="translate(-29.445 -152.214)"/><path class="b" d="M475.917,367.346c0,1.894-10.994,3.43-24.555,3.43s-24.555-1.536-24.555-3.43,10.994-3.43,24.555-3.43S475.917,365.452,475.917,367.346Z" transform="translate(38.121 -152.05)"/><g transform="translate(16.405 99.688)"><path class="c" d="M47.755,275.54S40.134,309.2,52.2,332.059L64.266,354.92S67.441,297.766,47.755,275.54Z" transform="translate(-45.381 -267.284)"/><path class="d" d="M47.907,352.454c.733,4.127,1.672,8.291,3.715,11.952s5.342,6.8,9.417,7.789a21.586,21.586,0,0,0,5.67.389,12.461,12.461,0,0,0,6.061-1.245c2.341-1.381,3.57-4.042,4.521-6.589a76.888,76.888,0,0,0,3.647-13.288c.469-2.613.774-5.446-.447-7.8-1.652-3.194-5.524-4.479-9.074-5.059-5.9-.962-14.02-1.453-19.673.948C46.808,341.644,47.106,347.948,47.907,352.454Z" transform="translate(-45.017 -256.331)"/><path class="e" d="M60.636,343.8c4.68.273,9.753-.445,12.7-2.032.589-.318,1.114-.724.835-1.112-.329-.46-1.576-.649-2.662-.761a66.63,66.63,0,0,0-17.366.091C46.073,341.356,56.353,343.55,60.636,343.8Z" transform="translate(-44.368 -256.055)"/><path class="f" d="M57.242,268.519s-3.811,64.14,5.08,87.636C62.322,356.155,68.037,299,57.242,268.519Z" transform="translate(-43.437 -268.519)"/><path class="c" d="M60.884,353.571h2.063c3.035-12.7,12.114-53.827,7.315-73.023,0,0-15.241,53.979-11.43,66.045C59.763,349.757,60.419,351.989,60.884,353.571Z" transform="translate(-43.122 -266.403)"/></g><g transform="translate(469.138 101.881)"><path class="c" d="M432.761,277.4s-7.621,33.658,4.445,56.519l12.066,22.862S452.447,299.631,432.761,277.4Z" transform="translate(-430.387 -269.149)"/><path class="d" d="M432.913,354.319c.733,4.128,1.672,8.29,3.715,11.951s5.342,6.8,9.417,7.789a21.591,21.591,0,0,0,5.67.39,12.461,12.461,0,0,0,6.061-1.246c2.341-1.379,3.57-4.042,4.521-6.587a76.951,76.951,0,0,0,3.646-13.288c.469-2.614.774-5.447-.447-7.8-1.652-3.195-5.524-4.48-9.075-5.059-5.9-.962-14.02-1.455-19.673.948C431.814,343.509,432.112,349.813,432.913,354.319Z" transform="translate(-430.023 -258.196)"/><path class="e" d="M445.642,345.666c4.68.274,9.753-.443,12.7-2.031.589-.318,1.114-.726.835-1.114-.329-.46-1.576-.648-2.662-.761a66.577,66.577,0,0,0-17.366.092C431.079,343.22,441.359,345.415,445.642,345.666Z" transform="translate(-429.374 -257.92)"/><path class="f" d="M442.249,270.384s-3.811,64.139,5.08,87.636C447.328,358.02,453.043,300.866,442.249,270.384Z" transform="translate(-428.443 -270.384)"/><path class="c" d="M445.891,355.435h2.063c3.036-12.7,12.115-53.826,7.315-73.022,0,0-15.241,53.978-11.43,66.044C444.769,351.621,445.425,353.853,445.891,355.435Z" transform="translate(-428.128 -268.268)"/></g><ellipse class="g" cx="55.358" cy="7.125" rx="55.358" ry="7.125" transform="translate(20.964 217.713)"/><path class="g" d="M473.2,380.675c0,3.936-24.785,7.125-55.358,7.125s-55.358-3.189-55.358-7.125,24.785-7.125,55.358-7.125S473.2,376.74,473.2,380.675Z" transform="translate(26.806 -150.355)"/><ellipse class="g" cx="55.358" cy="7.125" rx="55.358" ry="7.125" transform="translate(148.124 216.069)"/><path class="g" d="M392.1,372.751c0,3.935-24.785,7.125-55.358,7.125s-55.358-3.19-55.358-7.125,24.785-7.126,55.358-7.126S392.1,368.815,392.1,372.751Z" transform="translate(12.539 -151.749)"/><ellipse class="g" cx="33.068" cy="7.125" rx="33.068" ry="7.125" transform="translate(228.989 201.953)"/><g transform="translate(0)"><path class="h" d="M104.736,214.248l20.887,3.388-9.938-9.074,4.751-5.3L138.5,219.42a4.179,4.179,0,0,1-2.9,7.059l-25.308.79Z" transform="translate(-18.535 -180.311)"/><path class="e" d="M117.122,258.5l-.416,136.346-7.174.512-4.981-115.675-6.661.513-6.8,114.137-7.174-.512.905-137.789Z" transform="translate(-22.198 -171.028)"/><path class="h" d="M109.318,212.758,85.2,211.743a8.087,8.087,0,0,0-6.509,2.852l7.048,55.235,32.969.664-3.01-50.629S110.2,212.8,109.318,212.758Z" transform="translate(-23.117 -178.82)"/><path class="d" d="M114.474,204.225c-1.325,1.05-3.011,2.025-3.277,3.695a3.323,3.323,0,0,0,2.2,3.408,5.661,5.661,0,0,0,4.265-.326,7.337,7.337,0,0,0,4.323-5.238c.292-1.7-.469-4.98-2.447-5.576C117.293,199.511,116.1,202.935,114.474,204.225Z" transform="translate(-17.404 -180.867)"/><path class="i" d="M86,373.207l-13.959,4.169.512,1.195,20.307-2.218.313-2.633Z" transform="translate(-24.286 -150.416)"/><path class="j" d="M48.026,216.081l-2.213-3.762,2.434-5.089a24.978,24.978,0,0,0,1.328-4.647c0-1.105-1.107-2.654-2.213-.663a41.457,41.457,0,0,1-2.213,3.541l-6.56-9.735a1,1,0,0,0-.833-.443h0a1,1,0,0,0-.884,1.478l1.5,2.794a1,1,0,0,1-1.452,1.3l-.3-.207a3.676,3.676,0,0,0-5.075.891l-.113.159.111,3.31a7.376,7.376,0,0,0,2.69,5.459c3.873,3.18,10.758,8.745,10.917,8.269C45.37,218.071,48.026,216.081,48.026,216.081Z" transform="translate(-31.43 -181.715)"/><path class="j" d="M109.664,194.614a2.188,2.188,0,0,0-2.654.822,3.293,3.293,0,0,0-.253,2.91,4.232,4.232,0,0,0,4.428,2.76,3.746,3.746,0,0,0,3.1-4.042A3.933,3.933,0,0,0,111.8,194.1a5.3,5.3,0,0,0-3.952.155" transform="translate(-18.218 -181.978)"/><path class="j" d="M109.137,196.271l10.854,8.529s.259,4.652-2.326,5.168c-.775.517-10.854-10.079-10.854-10.079Z" transform="translate(-18.17 -181.54)"/><path class="i" d="M105.7,374.591l.352,2.291,17.578,2.9s.854-1.365.341-1.536-11.1-4.169-11.1-4.169Z" transform="translate(-18.365 -150.262)"/><path class="j" d="M91.113,202.684l.554,15.029a3.544,3.544,0,0,0,2.992,3.5h0a3.544,3.544,0,0,0,4.067-3.035l.762-13Z" transform="translate(-20.931 -180.412)"/><g transform="translate(81.849 8.361)"><rect class="e" width="7.753" height="16.343" transform="translate(2.989 0) rotate(10.538)"/><rect class="e" width="6.893" height="16.343" transform="translate(2.989 0) rotate(10.537)"/></g><path class="d" d="M90.548,213.8s-1.1.942-1.178,1.256,4.243,7.071,4.243,7.071l2.906-4.635,3.614,4.635,1.492-8.405-2.435-.55-2.749,3.142-4.869-3.928Z" transform="translate(-21.238 -178.706)"/><path class="k" d="M95.72,216.729l-1.807,2.985,1.257,2.278-.707,1.728.707,22.151,2.514,2.828,2.278-2.671L97.6,223.642l-1.335-1.807,1.65-2.278Z" transform="translate(-20.439 -177.942)"/><path class="j" d="M85.957,189.894c-1.524,3.522-1.353,7.561-.551,11.315.871,4.078,2.58,8.17,5.81,10.808s8.243,3.387,11.571.874a12.21,12.21,0,0,0,3.857-6.235c1.5-4.708,1.806-9.968-.148-14.507C102.91,183.826,90.237,180,85.957,189.894Z" transform="translate(-22.041 -183.698)"/><path class="h" d="M87.889,230.063l-25.9,8.36-18.821-20.5,4.69-3.874L65.21,228.268l19.724-14.079,3.362,5.882Z" transform="translate(-29.365 -178.414)"/><path class="d" d="M40.65,216.995l1.991,3.1L51.492,215l-3.54-3.54Z" transform="translate(-29.808 -178.868)"/><path class="j" d="M82.249,194.721a3,3,0,0,0-1.544,3.057,6.62,6.62,0,0,0,1.537,3.27,5.681,5.681,0,0,0,1.446,1.41,4.672,4.672,0,0,0,1.859.607,2.288,2.288,0,0,0,2.21-.636,2.578,2.578,0,0,0,.361-1.209c.243-2-.273-2.8-1.431-4.247C85.623,195.643,84.228,193.852,82.249,194.721Z" transform="translate(-22.765 -181.853)"/><path class="e" d="M89.124,196.748a6.509,6.509,0,0,1-2.992,5.246,12.14,12.14,0,0,1-2.334-6.161,11.426,11.426,0,0,1,1.742-7.874,10.876,10.876,0,0,1,8.1-4.178,20.492,20.492,0,0,1,9.154,1.791c1.259.516,2.873,1.042,3.832.078a6.654,6.654,0,0,1,.773,3.077,4.181,4.181,0,0,1-.61,2.346,6.291,6.291,0,0,1-3.363,2.74c-10.215,2.282-14.962-3.262-15.009-3.109a3.817,3.817,0,0,0,.288,1.783A14.189,14.189,0,0,1,89.124,196.748Z" transform="translate(-22.233 -183.744)"/></g><g transform="translate(121.635 40.492)"><path class="l" d="M225.389,300.842l-2.9-56.532s-14.534-.87-18.859-.87c-2.357,0-6.382,1.118-9.559,2.137-2.986.956-5.466.871-6.916,3.651l-23.837,45.688,14.646,1.395,4.882-5.58-2.484-3.765,8.9-21-.143,35.575Z" transform="translate(-129.865 -213.735)"/><path class="m" d="M187.479,255.511l-15.8,28.546,4.92,5.763a8.689,8.689,0,0,0,3.9-.214l.875-1-2.484-3.765,8.9-21Z" transform="translate(-128.394 -211.611)"/><path class="n" d="M198.431,282.993c-.611-.2-5.5-3.059-9.173-3.059s-8.154,3.874-8.154,3.874-.611,2.039,1.834,1.631,4.077-.611,4.077-.611-4.28,2.242-1.426,2.65,14.881,0,14.881,0Z" transform="translate(-126.748 -207.315)"/><path class="o" d="M202.108,290.1h-47.1v-3.452h47.1a1.727,1.727,0,0,1,1.726,1.726h0A1.727,1.727,0,0,1,202.108,290.1Z" transform="translate(-131.326 -206.134)"/><path class="p" d="M192.731,295.43H147.316a4.43,4.43,0,0,1-4.281-3.293l-8.015-30.2a4.43,4.43,0,0,1,4.281-5.566h39.656a4.428,4.428,0,0,1,4.28,3.293Z" transform="translate(-134.869 -211.46)"/><path class="q" d="M139.3,256.373a4.43,4.43,0,0,0-4.281,5.566l8.016,30.2a4.408,4.408,0,0,0,1.495,2.3l27.607-38.061Z" transform="translate(-134.869 -211.46)"/><path class="d" d="M162.445,275.788a2.723,2.723,0,0,1-2.769,3.567,4.96,4.96,0,0,1-4.57-3.567,2.723,2.723,0,0,1,2.768-3.566A4.96,4.96,0,0,1,162.445,275.788Z" transform="translate(-131.328 -208.672)"/><path class="n" d="M196.349,238.072c.408.815,3.262,12.027,3.262,12.027a3.617,3.617,0,0,0,3.465,1.631c2.446-.2,3.465-3.67,3.465-3.67l-4.28-14.066Z" transform="translate(-124.054 -215.396)"/><path class="n" d="M213.364,233.682c0,7.723-8.2,16.27-15.923,16.27s-12.046-8.546-12.046-16.27a13.985,13.985,0,1,1,27.969,0Z" transform="translate(-125.981 -217.911)"/><path class="d" d="M198.5,244.957l-1.631,4.28,1.019,4.485,3.262-4.688,3.262,5.3,3.669-6.523-2.446-4.282s-1.223,2.854-3.873,3.465A2.664,2.664,0,0,1,198.5,244.957Z" transform="translate(-123.963 -213.719)"/><path class="p" d="M200.967,248.21l-2.446,3.058,1.223,1.835-1.835,3.873.408,25.482,2.446,5.1,3.466-5.708-.815-24.259-1.835-4.689,1.427-2.039Z" transform="translate(-123.78 -212.896)"/><path class="r" d="M218.111,254.211l.885,44.7-21.02-.221Z" transform="translate(-123.768 -211.84)"/><path class="l" d="M216.257,244.18l1.939,42.126-19.468,3.966,2.655,5.089,27.867,1.62-3.806-41.666a12.39,12.39,0,0,0-6.854-9.985Z" transform="translate(-123.636 -213.605)"/><path class="d" d="M195.829,282.535l3.873.408,3.465,5.708-6.514.451Z" transform="translate(-124.146 -206.858)"/><path class="e" d="M184.477,298.751l-34.457,8.765,17.53,68.913,6.045-3.023-5.139-59.241,30.83-9.672-17.833,10.276.3,56.219H187.2s15.113-55.009,16.624-55.009,26.9-16.926,26.9-16.926Z" transform="translate(-132.204 -204.005)"/><path class="e" d="M149.309,370.807l23.962-1.7.658-7.549-25.612,5.829Z" transform="translate(-132.503 -192.957)"/><path class="e" d="M165.7,375.295l4.836.6,13.6-5.138.3-10.579H179l-2.418,6.649-7.331,4.429Z" transform="translate(-129.446 -193.199)"/><path class="s" d="M185.109,228.977c-.548,1-1.108,2.175-.7,3.244.5,1.305,2.123,1.705,3.51,1.869a55.548,55.548,0,0,0,7.225.373,22.2,22.2,0,0,0,4.768-.477,27.781,27.781,0,0,0,7.148-3.186c1.625-.917,3.423-2.073,3.718-3.916.293-1.827-1.031-3.478-2.27-4.854a15.373,15.373,0,0,0-2.259-2.193,9.828,9.828,0,0,0-7.349-1.508C192.6,219.344,188.047,223.587,185.109,228.977Z" transform="translate(-126.179 -218.179)"/><path class="s" d="M204.885,232.481a1.5,1.5,0,0,1,1.871-.878,2.142,2.142,0,0,1,1.339,1.734,3.875,3.875,0,0,1-.436,2.23,5.162,5.162,0,0,0-.444,1.029,3.682,3.682,0,0,0-.064.938q.034,2.05.066,4.1a5.116,5.116,0,0,0,2.355-2.642c1.246-2.339,2.529-4.831,2.384-7.476a14,14,0,0,0-2.314-6.1,3.3,3.3,0,0,0-.874-1.1,2.245,2.245,0,0,0-1.928-.208,6.634,6.634,0,0,0-1.758.955q-.815.556-1.629,1.11a3.789,3.789,0,0,0-1.364,1.317c-.516,1.034.2,1.47.805,2.1C203.2,229.909,202.66,236.7,204.885,232.481Z" transform="translate(-123.076 -217.156)"/><g transform="translate(56.423 19.833)"><path class="t" d="M187.679,242.237a5.387,5.387,0,0,1-4.6-3.5,2.97,2.97,0,0,1,.206-2.726,2.392,2.392,0,0,1,2.031-.963,5.389,5.389,0,0,1,4.6,3.5,2.968,2.968,0,0,1-.206,2.725A2.392,2.392,0,0,1,187.679,242.237Zm-2.362-6.644a1.86,1.86,0,0,0-1.583.731,2.433,2.433,0,0,0-.138,2.225,4.8,4.8,0,0,0,4.083,3.14,1.86,1.86,0,0,0,1.583-.731,2.43,2.43,0,0,0,.138-2.224A4.8,4.8,0,0,0,185.317,235.593Z" transform="translate(-182.851 -235.045)"/></g><g transform="translate(65.697 19.833)"><path class="t" d="M195.566,242.237a5.386,5.386,0,0,1-4.6-3.5,2.971,2.971,0,0,1,.206-2.726,2.392,2.392,0,0,1,2.031-.963,5.389,5.389,0,0,1,4.6,3.5,2.968,2.968,0,0,1-.206,2.725A2.392,2.392,0,0,1,195.566,242.237Zm-2.362-6.644a1.86,1.86,0,0,0-1.583.731,2.433,2.433,0,0,0-.138,2.225,4.8,4.8,0,0,0,4.083,3.14,1.86,1.86,0,0,0,1.583-.731,2.43,2.43,0,0,0,.138-2.224A4.8,4.8,0,0,0,193.2,235.593Z" transform="translate(-190.738 -235.045)"/></g></g><g transform="translate(219.34 16.277)"><path class="e" d="M238.6,214.134c.145,2.2,1.349,4.38.743,6.5-.5,1.734-2.114,2.973-2.613,4.706-.566,1.967.432,4.01,1.4,5.814.809,1.509,1.943,3.223,3.656,3.231a4.812,4.812,0,0,0,2.119-.676l4.888-2.452a7.922,7.922,0,0,0,1.988-1.258,7.729,7.729,0,0,0,1.687-3.049c1.253-3.454,2.375-7.071,2.086-10.731s-2.291-7.4-5.7-8.764c-1.91-.761-7.5-1.438-9.139.2-.73.728-.366,1.5-.457,2.431C239.119,211.47,238.508,212.693,238.6,214.134Z" transform="translate(-214.684 -195.993)"/><path class="j" d="M244.213,222.341l-1.665.455c-6.921,4.506-10.971,10.765-11.844,18.978l-3.527,57.133,5.3-2.373Z" transform="translate(-216.336 -193.231)"/><path class="p" d="M277.823,222.145l-28.262-1.151a34.35,34.35,0,0,0-8.882,1.44l-3.6,1.68,6.342,30.275h0a60.152,60.152,0,0,0-8.316,32.368l3.355,41.281h31.678L274.17,284.5a60.165,60.165,0,0,0-4.818-25.995l-1.724-4.022Z" transform="translate(-214.947 -193.469)"/><path class="u" d="M242.778,234.781a8.131,8.131,0,0,0,9.608,4.41,20.42,20.42,0,0,0,6.014-2.571,32.832,32.832,0,0,0,9.118-7.447c1.74-2.159,3.091-5.235,1.678-7.622-.907-1.529-2.7-2.286-4.412-2.747C255.609,216.339,235.769,221.567,242.778,234.781Z" transform="translate(-213.85 -193.957)"/><path class="j" d="M265.153,211.466c0,7.512-8.01,17.71-15.521,17.71s-11.68-10.2-11.68-17.71a13.6,13.6,0,0,1,27.2,0Z" transform="translate(-214.441 -197.536)"/><path class="j" d="M272.578,221.972l19.6,25.551a5.683,5.683,0,0,1-1.543,8.307l-22.916,14.02-2.83-4.419,15.721-12.6a2.794,2.794,0,0,0,.553-3.765l-11.923-16.9Z" transform="translate(-209.702 -193.296)"/><path class="j" d="M217.958,290.328h12.307a3.751,3.751,0,0,0,3.742-3.489l.1-1.4Z" transform="translate(-217.958 -182.132)"/><path class="j" d="M246.4,217.649c-.182-.454,3.249,8.976,3.249,8.976s.774,3.868,4.024,2.94,1.238-14.7.774-14.855S246.712,218.423,246.4,217.649Z" transform="translate(-212.955 -194.574)"/><path class="e" d="M256.3,209.729c-6.3,3.832-12.92,7.773-20.276,8.221,1.655-2.053,1.323-4.989,1.626-7.609a14.437,14.437,0,0,1,19.138-11.955,7.989,7.989,0,0,1,3.935,2.679C263.426,204.841,259.22,207.949,256.3,209.729Z" transform="translate(-214.781 -197.586)"/><path class="e" d="M252.947,224.3c.421,2.021,1.7,3.812,1.934,5.864a11.787,11.787,0,0,1-.463,3.97l-1.107,4.728a14.124,14.124,0,0,0,5.931-2.972,23.043,23.043,0,0,0,8.171-21.526,37.008,37.008,0,0,0-1.941-6.605,16.522,16.522,0,0,0-2.422-4.706,6.252,6.252,0,0,0-4.514-2.484,6.675,6.675,0,0,0-5.285,3.057,6.767,6.767,0,0,0-1.437,4.007c.028,1.444.533,6.357,1.856,6.936A3.457,3.457,0,0,1,258.5,216.3c1.023,2.916-1.587,3.475-3.329,4.473C253.007,222.02,252.477,222.042,252.947,224.3Z" transform="translate(-212.003 -197.061)"/><path class="e" d="M267.4,213.745a34.5,34.5,0,0,1,4.03,2.955c1.175,1.185,1.956,2.984,1.335,4.533a7.88,7.88,0,0,1-1.994,2.408,3.581,3.581,0,0,0-1.31,2.747,4.462,4.462,0,0,0,.883,1.867c1,1.516,1.865,3.29,1.567,5.082a4.932,4.932,0,0,1-2.526,3.409,6.837,6.837,0,0,1-4.26.676,13.637,13.637,0,0,0-2.521-.335c-2.239.1-4,2.121-6.226,2.382a4.1,4.1,0,0,1-4.524-4.771c.352-2.05,2.145-3.491,3.8-4.757s3.415-2.772,3.659-4.836c.181-1.542-.544-3.086-.355-4.626.272-2.208,2.325-3.826,2.819-6,.281-1.234-.169-4.351,1.765-4.311C265.015,210.2,266.3,212.921,267.4,213.745Z" transform="translate(-212.006 -195.371)"/><path class="e" d="M251.784,211.715a16.723,16.723,0,0,1-1.415,2.106l-2.142,2.868a15.5,15.5,0,0,0,.506-5.668,2.628,2.628,0,0,1,.006-.869,2.261,2.261,0,0,1,1.068-1.212c.656-.435,2.342-1.84,3.01-.936C253.341,208.713,252.136,211.055,251.784,211.715Z" transform="translate(-212.633 -195.805)"/></g><g transform="translate(273.777 38.82)"><path class="e" d="M265.545,255.4l-1.294,1.149,4.5,5.259Z" transform="translate(-264.251 -209.96)"/><path class="v" d="M355.9,301.17,353,244.638s-14.534-3.063-18.859-3.063c-2.357,0-6.382,1.118-9.559,2.137a11.912,11.912,0,0,0-6.916,5.844l-23.837,45.688,14.646,1.395,4.882-5.58-2.483-3.765,8.9-21-.143,35.575Z" transform="translate(-259.049 -212.391)"/><path class="j" d="M349.071,232.357a13.985,13.985,0,0,1-13.984,13.985c-4.274,0-7.24-4.438-9.806-7.46-2.068-2.439-3.7-3.128-3.7-6.577,0-7.723,5.782-13.932,13.505-13.932A13.984,13.984,0,0,1,349.071,232.357Z" transform="translate(-254.166 -216.473)"/><path class="e" d="M323.439,295.43H274.618l-10.366-39.057h48.821Z" transform="translate(-264.251 -209.788)"/><path class="d" d="M323.245,295.6h-47.3l-10.6-40.206,47.851,1.149Z" transform="translate(-264.058 -209.96)"/><rect class="e" width="33.473" height="2.83" transform="translate(10.762 82.811)"/><path class="w" d="M332.374,289.84,351.08,280.9l-1.546-30.149-3.236.2L322.052,276.4s-3.617,9.44-6.252,16.875l-.028,6.981,25.142-.483Z" transform="translate(-255.188 -210.777)"/><path class="p" d="M308.3,285.221H282.245l-5.837-22.147,26.358.633Z" transform="translate(-262.113 -208.609)"/><path class="k" d="M314.988,298.751l-34.457,8.765,17.53,68.913,6.045-3.023-5.139-59.241,30.83-9.672-17.833,10.276.3,56.219h5.44s15.113-55.009,16.624-55.009,26.9-16.926,26.9-16.926Z" transform="translate(-261.388 -202.333)"/><path class="e" d="M279.82,370.807l23.962-1.7.658-7.549-25.612,5.829Z" transform="translate(-261.687 -191.285)"/><path class="t" d="M325.585,247.212a38.022,38.022,0,0,0,1.513,8,2.953,2.953,0,0,0,.856,1.545c.969.757,2.375.121,3.384-.582a23.8,23.8,0,0,0,4.76-4.3,8.4,8.4,0,0,0,1.928-3.607,3.993,3.993,0,0,0-1.1-3.785c-1.612-1.391-5.082-1.341-7.111-1.388C326.96,243.032,325.346,244.212,325.585,247.212Z" transform="translate(-253.466 -212.123)"/><path class="e" d="M296.21,375.295l4.836.6,13.6-5.138.3-10.579h-5.441l-2.418,6.649-7.331,4.429Z" transform="translate(-258.629 -191.527)"/><path class="j" d="M328.745,236.447l-1.034,11.789s.828,4.964,3.723,4.136a4.379,4.379,0,0,0,3.309-3.1l1.241-14.063Z" transform="translate(-253.088 -213.511)"/><path class="s" d="M340.3,228.11a16.269,16.269,0,0,0,6.452-1.2,5.947,5.947,0,0,0,3.61-5.11c-.036-2.2-2.309-4.279-4.4-3.6-.479.155-.915.432-1.4.546a4.573,4.573,0,0,1-2.3-.275c-5.654-1.667-11.98-2.776-17.26-.154a5.363,5.363,0,0,0-2.457,2.1,6.455,6.455,0,0,0-.574,2.476q-.314,3.425-.413,6.866c1.529-.828,3.047-1.813,4.637-2.514,1.553-.686,2.549-.008,4.2.335A40.742,40.742,0,0,0,340.3,228.11Z" transform="translate(-254.172 -216.757)"/><path class="x" d="M327.223,223.243a5.068,5.068,0,0,0-4.084,1.135,13.88,13.88,0,0,0-1.913,5.932,11.644,11.644,0,0,1,.282,2.247,5.933,5.933,0,0,0,.474,1.95c.8,1.211,2.09,2.031,3.362,3.531.053.061.106.126.158.188,1.355-2.339,3.559-7.675,3.972-8.213.63-.82,2.663-3.287,2.3-4.38C331.419,224.585,328.226,223.426,327.223,223.243Z" transform="translate(-254.229 -215.629)"/><path class="j" d="M326.97,228.157a1.289,1.289,0,0,0-.393-.419,1.379,1.379,0,0,0-.691-.121,3.045,3.045,0,0,0-2.532.8,2.582,2.582,0,0,0-.413,1.083,9.521,9.521,0,0,0-.128,2.776c.145,1.422.829,3.019,2.221,3.34a2.691,2.691,0,0,0,2.347-.718C329.57,232.909,328.4,230.27,326.97,228.157Z" transform="translate(-253.958 -214.846)"/><path class="s" d="M344.063,235.032a4.827,4.827,0,0,1,2.181-.147,1.78,1.78,0,0,1,1.437,1.475,4.694,4.694,0,0,1-.159,1.062,6.528,6.528,0,0,0,.639,3.244c.837,2.288,1.39,5.02,0,7.023-1.306,1.884-3.876,2.407-6.165,2.3a17.247,17.247,0,0,1-15.233-11.643,11.432,11.432,0,0,1-.225-6.992c.223-.684.807-1.471,1.486-1.235a8.556,8.556,0,0,0,4.467,6.231C336.666,238.5,340.044,235.969,344.063,235.032Z" transform="translate(-253.373 -214.413)"/><g class="y" transform="translate(-264.058 -209.96)"><path class="ag" d="M323.245,295.6h-47.3l-10.6-40.206,47.851,1.149Z"/><path class="ah" d="M 321.9556274414062 294.6015319824219 L 312.4223022460938 257.5261535644531 L 266.65771484375 256.4273681640625 L 276.7185974121094 294.6015319824219 L 321.9556274414062 294.6015319824219 M 323.2453002929688 295.6015319824219 L 275.947998046875 295.6015319824219 L 265.3516845703125 255.3957366943359 L 313.2024536132812 256.5445861816406 L 323.2453002929688 295.6015319824219 Z"/></g><path class="d" d="M340.543,290.01H273.4v-2.83h67.14a1.415,1.415,0,0,1,1.415,1.415h0A1.415,1.415,0,0,1,340.543,290.01Z" transform="translate(-262.641 -204.369)"/><path class="o" d="M306.558,290.01H273.4v-2.83h33.155a1.416,1.416,0,0,1,1.416,1.415h0A1.416,1.416,0,0,1,306.558,290.01Z" transform="translate(-262.641 -204.369)"/><path class="v" d="M350.63,244.18l-12.209,32.281-31.143,4.146,1.226,6.228,39.853-1.3,10.763-28.382a6.745,6.745,0,0,0,.2-4.372,12.4,12.4,0,0,0-6.353-7.449Z" transform="translate(-256.682 -211.933)"/><path class="j" d="M309.835,276.5l-16.8-8.972a1.818,1.818,0,0,0,.426,2.442c1.328,1.107,5.579,4.252,5.579,4.252v2.444c1.4,4.586,5.734,6.752,10.5,6.229l1.518-.167Z" transform="translate(-259.24 -207.826)"/></g><g transform="translate(365.226 30.207)"><path class="z" d="M368.474,290.354H348.417s-.582-1.453,2.615-2.034,12.209-.873,12.209-.873l2.325-2.615,3.2.871Z" transform="translate(-340.902 -196.169)"/><path class="aa" d="M382.67,238.176,361.3,295.854l5.275,1.319,32.837-56.207s-.942-3.642-6.522-7.128S382.67,238.176,382.67,238.176Z" transform="translate(-338.629 -205.297)"/><path class="n" d="M383.84,215.876a13.993,13.993,0,0,0-19.331-4.23,14.645,14.645,0,0,0-6.4,10.785,7.669,7.669,0,0,0,.654,4.927c.893,2.032,3.345,4.809,1.939,8.845a2.286,2.286,0,0,0,1.048,2.83c1.1.437,2.061-.754,3.123-.8,2.018-.092,5.981,3,7.424,4.213a4.274,4.274,0,0,0,2.087,1.166,3.452,3.452,0,0,0,1.986-.482c3.07-1.593,4.941-4.778,6.476-7.879a24.937,24.937,0,0,0,2.946-9.184A13.933,13.933,0,0,0,383.84,215.876Z" transform="translate(-339.211 -209.433)"/><path class="n" d="M380.965,240.992a2.747,2.747,0,0,0,2.168,1.123,2.542,2.542,0,0,0,1.048-.5,16.026,16.026,0,0,0,2.373-2.023,2.574,2.574,0,0,0,.886-1.625,2.454,2.454,0,0,0-.268-1.025c-1.415-3.187-4.317-5.614-5.34-8.946-.465-1.511-.513-3.13-1.033-4.624s-1.722-2.934-3.3-3a4.164,4.164,0,0,0-2.567.974,9.173,9.173,0,0,0-3.588,7.967,9.371,9.371,0,0,0,4.065,6.82A35.194,35.194,0,0,1,380.965,240.992Z" transform="translate(-336.867 -207.507)"/><path class="s" d="M364.365,211.646a14.223,14.223,0,0,0-5.558,7.159c2.681,1.324,9.524-1.62,11.382-2.743a13.356,13.356,0,0,0,6.4,11.817c2.458,1.455,5.356,2.09,7.815,3.5a18.864,18.864,0,0,0,1.241-5.314,13.979,13.979,0,0,0-21.278-14.421Z" transform="translate(-339.067 -209.433)"/><path class="n" d="M369.958,224.06a3.206,3.206,0,0,1,1.476-4.183,4.113,4.113,0,0,1,4.558.875,5.805,5.805,0,0,1,1.559,4.538c-.146,2.08-1.66,4.325-3.743,4.218a3.778,3.778,0,0,1-2.8-1.783,11.185,11.185,0,0,1-1.293-3.176" transform="translate(-337.16 -207.658)"/><path class="d" d="M387.59,232.46l-3.987-4.63-6.3,11.576,2.315,7.331,8.36-9.389Z" transform="translate(-335.814 -206.197)"/><path class="k" d="M392.094,232.517l37.422,41.654L406.6,294.3l-28.067-43.118c-2.867-4.129,1.519-13.238,4.385-17.368h0A6.312,6.312,0,0,1,392.094,232.517Z" transform="translate(-335.761 -205.622)"/><path class="ab" d="M423.881,395.458l-10.059-56.692-11.56-50.914,22.915-20.126-1.311,70.4,5.594,54.539Z" transform="translate(-331.422 -199.178)"/><path class="e" d="M425.428,267.727,406.564,397.262l-5.725-.928,1.674-108.481Z" transform="translate(-331.673 -199.178)"/><path class="e" d="M392.353,382.258l15.116-.581.872-4.651-4.36-.581-14.534,4.07.291,2.035Z" transform="translate(-333.677 -180.054)"/><path class="ab" d="M427.966,374.11l.437,4.376-17.486,1.083-.155-1.393,15.474-4.952Z" transform="translate(-329.927 -180.62)"/><path class="n" d="M362.118,290.354H342.061s-.582-1.453,2.615-2.034,12.9-.8,12.9-.8l1.635-2.688,4.376,1.674Z" transform="translate(-342.02 -196.169)"/><path class="k" d="M388.4,235.846l-15.219,28.725-18.245,31.874,5.935.22,16.266-22.422,21.539-27.528a7.506,7.506,0,0,0,2.041-9.231h0A7.507,7.507,0,0,0,388.4,235.846Z" transform="translate(-339.747 -205.228)"/><path class="ac" d="M392.088,270.791c-.42-5.834-2.473-23.984-2.473-23.984l-6.27,10.553Z" transform="translate(-334.75 -202.858)"/></g><g transform="translate(238.487 145.926)"><path class="j" d="M252.219,307.84c-1.023,0-9.214,3.413-9.214,3.413l6.4,52.55a33.274,33.274,0,0,1-4.827,1.473c-3.143.9-5.961,1.224-8.737,3.075-.225.16-.294.957-.335,1.231-.091.6.729.869,1.337.9q5.688.249,11.384.049c2.419-.085,4.394-1.319,6.549-2.425a3.957,3.957,0,0,0,1.654-3.434C256.409,364.4,253.187,307.84,252.219,307.84Z" transform="translate(-234.019 -307.84)"/><path class="e" d="M245.4,360.113c3.654-.336,8.57-1.968,11.418-4.28.254,2.424-.46,4.752-5.074,5.935-5.328,1.366-11.034,2.881-16.308,1.317-.562-.167-1.212-.522-1.2-1.11a1.3,1.3,0,0,1,.315-.717c.938-1.251,3.714-3.483,5.361-2.939.857.282,1.472,1.274,2.447,1.572A8,8,0,0,0,245.4,360.113Z" transform="translate(-234.241 -299.398)"/></g><g transform="translate(256.658 145.926)"><path class="j" d="M249.693,361.108" transform="translate(-249.693 -298.47)"/><path class="j" d="M268.36,364.669c-.022-.27-3.244-56.829-4.212-56.829-1.023,0-9.214,3.413-9.214,3.413l6.4,52.55a47.865,47.865,0,0,0,3.572,8.129,16.8,16.8,0,0,0,6.36,6.342.928.928,0,0,0,.925.1.831.831,0,0,0,.283-.477c.453-1.558-.213-3.2-.864-4.687C270.42,370.5,268.594,367.622,268.36,364.669Z" transform="translate(-248.771 -307.84)"/><path class="e" d="M262.109,363.147c1.631,3.027,3.641,6.114,6.774,7.528a2.824,2.824,0,0,0,1.7.313,2.171,2.171,0,0,0,1.543-1.636,4.719,4.719,0,0,0-.129-2.341,11.872,11.872,0,0,0-1.412-3.273,1.015,1.015,0,0,0-.622-.541c-.36-.056-.656.255-.951.468a2.7,2.7,0,0,1-2.84-.014,7.014,7.014,0,0,1-2.1-2.106c-1.189-1.636-2.246-4.64-3.9-5.582C259.661,358.416,260.96,361.016,262.109,363.147Z" transform="translate(-247.87 -299.375)"/></g><g transform="translate(177.166 168.149)"><circle class="e" cx="3.911" cy="3.911" r="3.911" transform="translate(0 46.153)"/><circle class="e" cx="3.911" cy="3.911" r="3.911" transform="translate(47.07 46.153)"/><path class="e" d="M209.081,369.9a3.91,3.91,0,1,1-3.91-3.911A3.91,3.91,0,0,1,209.081,369.9Z" transform="translate(-178.721 -319.835)"/><path class="ad" d="M185.419,376.8v-2.027a8.2,8.2,0,0,1,8.2-8.2H209v-39.84" transform="translate(-181.508 -326.739)"/><path class="ad" d="M228.606,376.8v-2.027a8.2,8.2,0,0,0-8.2-8.2H205.025v-39.84" transform="translate(-178.059 -326.739)"/><line class="ad" y1="10.224" transform="translate(26.45 39.84)"/><rect class="e" width="8.677" height="19.784" transform="translate(22.284 19.708)"/><rect class="e" width="5.553" height="22.485" transform="translate(23.673 0.348)"/></g><g transform="translate(327.177 168.149)"><circle class="e" cx="3.911" cy="3.911" r="3.911" transform="translate(0 46.153)"/><circle class="e" cx="3.911" cy="3.911" r="3.911" transform="translate(47.07 46.153)"/><circle class="e" cx="3.911" cy="3.911" r="3.911" transform="translate(22.539 46.153)"/><path class="ad" d="M312.988,376.8v-2.027a8.2,8.2,0,0,1,8.2-8.2h15.383v-39.84" transform="translate(-309.078 -326.739)"/><path class="ad" d="M356.176,376.8v-2.027a8.2,8.2,0,0,0-8.2-8.2H332.6v-39.84" transform="translate(-305.629 -326.739)"/><line class="ad" y1="10.224" transform="translate(26.449 39.84)"/><rect class="e" width="8.677" height="19.784" transform="translate(22.284 19.708)"/><rect class="e" width="5.553" height="22.485" transform="translate(23.673 0.348)"/></g><g transform="translate(107.66 124.462)"><rect class="ae" width="268.517" height="42.544" transform="translate(10.462 4.185)"/><rect class="e" width="4.519" height="108.467" transform="translate(10.847 4.519)"/><rect class="e" width="4.519" height="108.467" transform="translate(277.494 4.519)"/><path class="af" d="M403.463,318.226,131.6,293.379H403.463Z" transform="translate(-121.469 -288.92)"/><rect class="h" width="291.957" height="7.231"/></g></svg>